<svg id="Layer_1" data-name="Layer 1" xmlns="http://www.w3.org/2000/svg" viewBox="0 0 740 734.89"><defs><style>.cls-1,.cls-3,.cls-4,.cls-5{fill:none;stroke:#68ffd9;stroke-miterlimit:10;}.cls-1{stroke-width:18px;}.cls-2{fill:#68ffd9;}.cls-4{stroke-width:16px;}.cls-5{stroke-width:12px;}</style></defs><rect class="cls-1" x="114" y="171.89" width="512" height="512" rx="18"/><rect class="cls-1" x="72" y="129.89" width="596" height="596" rx="18"/><rect class="cls-1" x="9" y="313.89" width="63" height="228" rx="18"/><rect class="cls-1" x="668" y="313.89" width="63" height="228" rx="18"/><rect class="cls-1" x="203.79" y="62" width="336" height="67.89" rx="18"/><path class="cls-1" d="M473,573.8c4.95,8.57.9,15.59-9,15.59H304c-9.9,0-13.95-7-9-15.59l71.36-123.6c4.95-8.57,12.89-15.59,17.64-15.59s12.69,7,17.64,15.59Z" transform="translate(-142 -118.06)"/><path class="cls-1" d="M731.84,573.8c4.95,8.57.9,15.59-9,15.59h-160c-9.9,0-14-7-9-15.59L625.2,450.2c4.95-8.57,12.89-15.59,17.64-15.59s12.69,7,17.64,15.59Z" transform="translate(-142 -118.06)"/><path class="cls-2" d="M411,544.84c4.95,8.57.9,15.59-9,15.59H366c-9.9,0-13.95-7-9-15.59l14.83-25.68c4.95-8.57,10.42-15.59,12.17-15.59s7.22,7,12.17,15.59Z" transform="translate(-142 -118.06)"/><path class="cls-3" d="M411,544.84c4.95,8.57.9,15.59-9,15.59H366c-9.9,0-13.95-7-9-15.59l14.83-25.68c4.95-8.57,10.42-15.59,12.17-15.59s7.22,7,12.17,15.59Z" transform="translate(-142 -118.06)"/><path class="cls-2" d="M669.84,544.84c4.95,8.57.9,15.59-9,15.59h-36c-9.9,0-14-7-9-15.59l14.83-25.68c5-8.57,10.43-15.59,12.17-15.59s7.23,7,12.18,15.59Z" transform="translate(-142 -118.06)"/><path class="cls-3" d="M669.84,544.84c4.95,8.57.9,15.59-9,15.59h-36c-9.9,0-14-7-9-15.59l14.83-25.68c5-8.57,10.43-15.59,12.17-15.59s7.23,7,12.18,15.59Z" transform="translate(-142 -118.06)"/><line class="cls-4" x1="40.5" y1="337.46" x2="40.5" y2="518.32"/><line class="cls-4" x1="699.5" y1="337.46" x2="699.5" y2="518.32"/><line class="cls-5" x1="227.95" y1="95.94" x2="518" y2="95.94"/><path class="cls-4" d="M349.57,681.47l21.7,21.7c7,7,20.83,12.72,30.73,12.72H624.84c9.9,0,23.73-5.72,30.73-12.72l21.5-21.5" transform="translate(-142 -118.06)"/><line class="cls-4" x1="114" y1="124" x2="114"/><line class="cls-4" x1="626" y1="124" x2="626"/></svg>