<svg xmlns="http://www.w3.org/2000/svg" viewBox="0 0 352 398"><defs><style>.a{fill:none;stroke:#8ed9c6;stroke-miterlimit:10;stroke-width:16px;}.b{fill:#8ed9c6;}</style></defs><rect class="a" x="16.98" y="71.94" width="318.03" height="318.06" rx="16"/><rect class="b" x="59.52" y="195" width="71.94" height="71.94" rx="12"/><rect class="b" x="222.84" y="194.73" width="71.94" height="71.94" rx="12"/><path class="a" d="M186.56,382.47l9.37,9.37c5.15,5.16,16.57,9.38,25.37,9.38H293c8.8,0,20.21-4.22,25.37-9.38l9.37-9.37" transform="translate(-80 -61)"/><rect class="b" x="318.03" y="159.03" width="33.97" height="143.88" rx="14.07"/><rect class="b" y="159.03" width="33.97" height="143.88" rx="14.07"/><rect class="b" x="238.4" y="61.01" width="33.97" height="143.87" rx="14.07" transform="translate(42.44 327.33) rotate(-90)"/><rect class="b" x="277.79" width="33.97" height="143.88" rx="14.07"/><rect class="b" x="42.53" width="33.97" height="143.88" rx="14.07"/></svg>