<svg xmlns="http://www.w3.org/2000/svg" viewBox="0 0 366.03 418.09"><defs><style>.a,.c{fill:none;stroke-miterlimit:10;stroke-width:24px;}.a{stroke:#61c2a7;}.b{fill:#61c2a7;}.c{stroke:#8ed9c6;}.d{fill:#8ed9c6;}</style></defs><rect class="a" x="32" y="88.03" width="318.03" height="318.06" rx="16"/><rect class="b" x="71.02" y="198.62" width="96" height="96" rx="12"/><rect class="b" x="215.02" y="198.62" width="96" height="96" rx="12"/><rect class="b" x="334.03" y="175.06" width="32" height="144" rx="14.07"/><rect class="b" x="16" y="175.06" width="32" height="144" rx="14.07"/><rect class="b" x="256" y="76.97" width="32" height="144" rx="14.07" transform="translate(42.04 360.03) rotate(-90)"/><rect class="b" x="293.79" y="16.03" width="32" height="144" rx="14.07"/><rect class="b" x="60.53" y="16.03" width="32" height="144" rx="14.07"/><rect class="b" x="260" y="338.16" width="24" height="144" rx="12" transform="translate(-219.14 621.22) rotate(-90)"/><rect class="c" x="16" y="72" width="318.03" height="318.06" rx="16"/><rect class="d" x="55.02" y="182.59" width="96" height="96" rx="12"/><rect class="d" x="199.02" y="182.59" width="96" height="96" rx="12"/><rect class="d" x="318.03" y="159.03" width="32" height="144" rx="14.07"/><rect class="d" y="159.03" width="32" height="144" rx="14.07"/><rect class="d" x="240" y="60.94" width="32" height="144" rx="14.07" transform="translate(42.07 328) rotate(-90)"/><rect class="d" x="277.79" width="32" height="144" rx="14.07"/><rect class="d" x="44.53" width="32" height="144" rx="14.07"/><rect class="d" x="244" y="322.13" width="24" height="144" rx="12" transform="translate(-219.12 589.19) rotate(-90)"/></svg>